<svg width="25" height="25" viewBox="0 0 25 25" fill="none" xmlns="http://www.w3.org/2000/svg">
<mask id="mask0_512_91" style="mask-type:alpha" maskUnits="userSpaceOnUse" x="0" y="0" width="25" height="25">
<rect x="0.868286" y="0.469238" width="24" height="24" fill="#D9D9D9"/>
</mask>
<g mask="url(#mask0_512_91)">
<path d="M12.8683 17.4692C13.1516 17.4692 13.3893 17.3732 13.5813 17.1812C13.7726 16.9899 13.8683 16.7526 13.8683 16.4692C13.8683 16.1859 13.7726 15.9482 13.5813 15.7562C13.3893 15.5649 13.1516 15.4692 12.8683 15.4692C12.585 15.4692 12.3476 15.5649 12.1563 15.7562C11.9643 15.9482 11.8683 16.1859 11.8683 16.4692C11.8683 16.7526 11.9643 16.9899 12.1563 17.1812C12.3476 17.3732 12.585 17.4692 12.8683 17.4692ZM12.8683 13.4692C13.1516 13.4692 13.3893 13.3732 13.5813 13.1812C13.7726 12.9899 13.8683 12.7526 13.8683 12.4692V8.46924C13.8683 8.1859 13.7726 7.94824 13.5813 7.75624C13.3893 7.56491 13.1516 7.46924 12.8683 7.46924C12.585 7.46924 12.3476 7.56491 12.1563 7.75624C11.9643 7.94824 11.8683 8.1859 11.8683 8.46924V12.4692C11.8683 12.7526 11.9643 12.9899 12.1563 13.1812C12.3476 13.3732 12.585 13.4692 12.8683 13.4692ZM12.8683 22.4692C11.485 22.4692 10.185 22.2066 8.96829 21.6812C7.75162 21.1566 6.69329 20.4442 5.79329 19.5442C4.89329 18.6442 4.18095 17.5859 3.65629 16.3692C3.13095 15.1526 2.86829 13.8526 2.86829 12.4692C2.86829 11.0859 3.13095 9.78591 3.65629 8.56924C4.18095 7.35257 4.89329 6.29424 5.79329 5.39424C6.69329 4.49424 7.75162 3.78157 8.96829 3.25624C10.185 2.73157 11.485 2.46924 12.8683 2.46924C14.2516 2.46924 15.5516 2.73157 16.7683 3.25624C17.985 3.78157 19.0433 4.49424 19.9433 5.39424C20.8433 6.29424 21.5556 7.35257 22.0803 8.56924C22.6056 9.78591 22.8683 11.0859 22.8683 12.4692C22.8683 13.8526 22.6056 15.1526 22.0803 16.3692C21.5556 17.5859 20.8433 18.6442 19.9433 19.5442C19.0433 20.4442 17.985 21.1566 16.7683 21.6812C15.5516 22.2066 14.2516 22.4692 12.8683 22.4692ZM12.8683 20.4692C15.1016 20.4692 16.9933 19.6942 18.5433 18.1442C20.0933 16.5942 20.8683 14.7026 20.8683 12.4692C20.8683 10.2359 20.0933 8.34424 18.5433 6.79424C16.9933 5.24424 15.1016 4.46924 12.8683 4.46924C10.635 4.46924 8.74329 5.24424 7.19329 6.79424C5.64329 8.34424 4.86829 10.2359 4.86829 12.4692C4.86829 14.7026 5.64329 16.5942 7.19329 18.1442C8.74329 19.6942 10.635 20.4692 12.8683 20.4692Z" fill="white"/>
</g>
</svg>
