<svg width="97" height="59" viewBox="0 0 97 59" fill="none" xmlns="http://www.w3.org/2000/svg">
<path d="M22.7109 15.1446H40.8646V16.5875H24.375V27.447H39.8813V28.8899H24.375V40.8126H41.0537V42.2555H22.7109V15.1446ZM42.4908 15.1446H44.4197L52.967 27.0673L61.7034 15.1446L73.5864 0L54.0638 28.3203L64.1239 42.2555H62.1195L52.967 29.5733L43.7767 42.2555H41.8101L51.9459 28.3203L42.4908 15.1446ZM64.8425 16.5875V15.1446H85.5301V16.5875H75.9994V42.2555H74.3353V16.5875H64.8425ZM0 15.1446H2.0801L30.7635 58.0666L18.91 42.2555L1.73972 17.195L1.66408 42.2555H0V15.1446ZM85.3624 40.3771C85.0224 40.3771 84.7674 40.1137 84.7674 39.7733C84.7674 39.4329 85.0224 39.1694 85.3624 39.1694C85.7065 39.1694 85.9574 39.4329 85.9574 39.7733C85.9574 40.1137 85.7065 40.3771 85.3624 40.3771ZM86.9976 38.7885H87.888C87.9002 39.2708 88.2523 39.595 88.7704 39.595C89.3491 39.595 89.677 39.2464 89.677 38.594V34.4602H90.5836V38.598C90.5836 39.7733 89.9036 40.4501 88.7785 40.4501C87.7221 40.4501 86.9976 39.7936 86.9976 38.7885ZM91.7695 38.7358H92.668C92.7449 39.291 93.2873 39.6436 94.0684 39.6436C94.797 39.6436 95.3312 39.2667 95.3312 38.748C95.3312 38.3022 94.9912 38.0347 94.2182 37.8523L93.4654 37.6699C92.409 37.4227 91.9273 36.9121 91.9273 36.0529C91.9273 35.0114 92.7773 34.3184 94.0522 34.3184C95.2381 34.3184 96.1043 35.0114 96.1569 35.9962H95.2746C95.1896 35.4572 94.7201 35.1208 94.0401 35.1208C93.3237 35.1208 92.8461 35.4653 92.8461 35.9921C92.8461 36.4095 93.1537 36.6487 93.9146 36.827L94.5582 36.985C95.7562 37.2647 96.25 37.751 96.25 38.6304C96.25 39.749 95.3839 40.4501 93.9996 40.4501C92.7045 40.4501 91.8343 39.7814 91.7695 38.7358Z" fill="white"/>
</svg>
