<svg width="97" height="59" viewBox="0 0 97 59" fill="none" xmlns="http://www.w3.org/2000/svg">
<path d="M47.5777 59C47.26 59 46.944 58.9171 46.6659 58.7561L43.7636 57.0388C43.3303 56.7964 43.5418 56.7104 43.6848 56.6606C44.263 56.46 44.38 56.4136 44.9972 56.0637C45.0613 56.0274 45.1466 56.0413 45.213 56.0802L47.4428 57.4039C47.5235 57.4487 47.6375 57.4487 47.7119 57.4039L56.4051 52.3865C56.486 52.3404 56.5378 52.2472 56.5378 52.1513V42.119C56.5378 42.0209 56.486 41.9293 56.4029 41.8794L47.7135 36.8664C47.6332 36.8194 47.5265 36.8194 47.4456 36.8664L38.7583 41.881C38.6739 41.9293 38.6204 42.0239 38.6204 42.119V52.1513C38.6204 52.2472 38.6739 52.3382 38.7575 52.3837L41.1389 53.7595C42.431 54.4056 43.2222 53.6446 43.2222 52.8802V42.9753C43.2222 42.8351 43.3347 42.7248 43.4748 42.7248H44.577C44.7149 42.7248 44.8289 42.8351 44.8289 42.9753V52.8802C44.8289 54.6047 43.8898 55.5937 42.255 55.5937C41.7525 55.5937 41.3569 55.5937 40.2526 55.0495L37.973 53.7371C37.4099 53.4116 37.0613 52.803 37.0613 52.1513V42.119C37.0613 41.4673 37.4099 40.8587 37.973 40.5347L46.6659 35.5114C47.216 35.2004 47.9472 35.2004 48.4929 35.5114L57.1854 40.5347C57.7483 40.8602 58.0984 41.4673 58.0984 42.119V52.1513C58.0984 52.803 57.7483 53.4094 57.1854 53.7371L48.4929 58.7561C48.215 58.9171 47.8997 59 47.5777 59Z" fill="white"/>
<path d="M50.2629 52.0884C46.4588 52.0884 45.662 50.3424 45.662 48.8777C45.662 48.7384 45.7738 48.6272 45.9131 48.6272H47.037C47.1626 48.6272 47.2672 48.7175 47.2868 48.84C47.4565 49.9842 47.9625 50.5617 50.2629 50.5617C52.0942 50.5617 52.8739 50.1474 52.8739 49.1758C52.8739 48.6157 52.6528 48.1999 49.8068 47.9211C47.4282 47.6859 45.9571 47.1604 45.9571 45.2577C45.9571 43.5036 47.4354 42.4576 49.9143 42.4576C52.6992 42.4576 54.0772 43.4242 54.2517 45.4979C54.2583 45.5695 54.233 45.6381 54.1854 45.6914C54.1377 45.7412 54.0714 45.7717 54.0013 45.7717H52.873C52.7562 45.7717 52.6528 45.6885 52.6291 45.5752C52.3584 44.3712 51.7002 43.9865 49.9143 43.9865C47.9148 43.9865 47.6824 44.683 47.6824 45.205C47.6824 45.8374 47.9566 46.0213 50.6563 46.3786C53.3278 46.7317 54.5969 47.2318 54.5969 49.1094C54.5969 51.0034 53.0175 52.0884 50.2629 52.0884Z" fill="white"/>
<path d="M60.8481 41.4518H61.1404C61.3793 41.4518 61.4241 41.2836 61.4241 41.1861C61.4241 40.9287 61.2466 40.9287 61.1491 40.9287H60.8481V41.4518ZM60.493 40.6273H61.1404C61.3621 40.6273 61.7967 40.6273 61.7967 41.1241C61.7967 41.4699 61.5749 41.5406 61.4415 41.585C61.6992 41.6026 61.7166 41.7713 61.7518 42.0104C61.7699 42.161 61.7967 42.4184 61.8493 42.5068H61.4509C61.4415 42.4184 61.3793 41.9395 61.3793 41.9131C61.3534 41.8065 61.3173 41.7536 61.1846 41.7536H60.8569V42.5068H60.493V40.6273ZM59.7177 41.5626C59.7177 42.3429 60.3472 42.9724 61.1182 42.9724C61.8985 42.9724 62.5278 42.3296 62.5278 41.5626C62.5278 40.7827 61.8898 40.1621 61.1182 40.1621C60.3559 40.1621 59.7177 40.7736 59.7177 41.5626M62.7978 41.5674C62.7978 42.4891 62.0441 43.2427 61.1225 43.2427C60.2093 43.2427 59.447 42.498 59.447 41.5674C59.447 40.6189 60.2273 39.8916 61.1225 39.8916C62.0269 39.8916 62.7978 40.6189 62.7978 41.5674" fill="white"/>
<path fill-rule="evenodd" clip-rule="evenodd" d="M20.6583 19.7499C20.6583 19.3493 20.4474 18.9811 20.1017 18.7827L10.8852 13.4787C10.7294 13.3868 10.5547 13.3392 10.378 13.332H10.2827C10.1064 13.3392 9.93192 13.3868 9.77372 13.4787L0.557273 18.7827C0.213683 18.9811 0 19.3493 0 19.7499L0.0202357 34.0321C0.0202357 34.2307 0.123378 34.4155 0.298111 34.513C0.469145 34.6155 0.680652 34.6155 0.851033 34.513L6.32846 31.3765C6.67488 31.1709 6.88574 30.8077 6.88574 30.4106V23.7381C6.88574 23.3403 7.09637 22.9721 7.44149 22.7743L9.77372 21.4311C9.94759 21.3308 10.1376 21.2816 10.3317 21.2816C10.5216 21.2816 10.7164 21.3308 10.8852 21.4311L13.2168 22.7743C13.5619 22.9721 13.7734 23.3403 13.7734 23.7381V30.4106C13.7734 30.8077 13.9871 31.173 14.3314 31.3765L19.8073 34.513C19.9789 34.6155 20.1935 34.6155 20.3637 34.513C20.5334 34.4155 20.6402 34.2307 20.6402 34.0321L20.6583 19.7499Z" fill="white"/>
<path fill-rule="evenodd" clip-rule="evenodd" d="M64.1493 27.1866C64.1493 27.2858 64.0962 27.3779 64.01 27.4273L60.8444 29.252C60.7584 29.3014 60.6524 29.3014 60.5665 29.252L57.4008 27.4273C57.3145 27.3779 57.2616 27.2858 57.2616 27.1866V23.5311C57.2616 23.4319 57.3145 23.3399 57.4006 23.29L60.5661 21.4617C60.6524 21.4119 60.7584 21.4119 60.8448 21.4617L64.0102 23.29C64.0962 23.3399 64.1493 23.4319 64.1493 23.5311V27.1866ZM65.0047 0.116488C64.8321 0.020744 64.6217 0.0227006 64.4513 0.122797C64.2814 0.222675 64.1767 0.405461 64.1767 0.602824V14.7468C64.1767 14.8859 64.1023 15.0147 63.9822 15.0843C63.8616 15.154 63.713 15.154 63.5924 15.0843L61.2839 13.7544C60.9397 13.5557 60.516 13.5561 60.1715 13.7546L50.9516 19.0755C50.6069 19.2744 50.3948 19.642 50.3948 20.0397V30.6839C50.3948 31.0816 50.6069 31.4489 50.9512 31.6483L60.1709 36.9731C60.5156 37.172 60.9399 37.172 61.2846 36.9731L70.5058 31.6483C70.8501 31.4489 71.0624 31.0816 71.0624 30.6839V4.15058C71.0624 3.74715 70.844 3.37505 70.4914 3.17834L65.0047 0.116488Z" fill="white"/>
<path fill-rule="evenodd" clip-rule="evenodd" d="M95.706 23.4357C96.0489 23.2366 96.26 22.8697 96.26 22.473V19.8936C96.26 19.4969 96.0489 19.1298 95.7056 18.9307L86.5448 13.6119C86.2001 13.4115 85.7747 13.4113 85.4292 13.6104L76.2125 18.9313C75.868 19.1302 75.6559 19.4975 75.6559 19.8953V30.5366C75.6559 30.937 75.8707 31.3063 76.2182 31.5041L85.3776 36.7232C85.7153 36.916 86.1294 36.9182 86.4693 36.7293L92.0094 33.65C92.1852 33.5521 92.2947 33.3678 92.2958 33.1672C92.2971 32.9663 92.1902 32.7805 92.0164 32.6806L82.7412 27.357C82.5679 27.2578 82.4613 27.0733 82.4613 26.8742V23.5392C82.4613 23.3404 82.5675 23.1563 82.7401 23.057L85.6268 21.3928C85.7984 21.2936 86.0106 21.2936 86.1825 21.3928L89.0705 23.057C89.243 23.1563 89.349 23.3404 89.349 23.5392V26.1631C89.349 26.3624 89.4556 26.5465 89.6282 26.6457C89.8008 26.7454 90.0134 26.7445 90.1855 26.6446L95.706 23.4357Z" fill="white"/>
<path fill-rule="evenodd" clip-rule="evenodd" d="M85.8512 22.9372C85.9173 22.8989 85.9987 22.8989 86.0648 22.9372L87.8339 23.9577C87.9001 23.996 87.9408 24.0665 87.9408 24.1429V26.1857C87.9408 26.2623 87.9001 26.3326 87.8339 26.3709L86.0648 27.3917C85.9987 27.43 85.9173 27.43 85.8512 27.3917L84.0834 26.3709C84.0172 26.3326 83.9765 26.2623 83.9765 26.1857V24.1429C83.9765 24.0665 84.0172 23.996 84.0834 23.9577L85.8512 22.9372Z" fill="white"/>
<path d="M34.914 13.7228L25.7704 19.0005C25.4283 19.1976 25.2179 19.5623 25.2179 19.9568V30.5209C25.2179 30.9156 25.4283 31.2801 25.77 31.4777L34.9135 36.7597C35.2554 36.9571 35.6767 36.9571 36.0187 36.7597L45.1642 31.4777C45.5061 31.2801 45.7165 30.9156 45.7165 30.5209V19.9573C45.7165 19.5623 45.5061 19.1976 45.164 19.0005L36.0183 13.7228C35.8475 13.624 35.6569 13.5748 35.466 13.5748C35.2754 13.5748 35.0846 13.624 34.914 13.7228Z" fill="url(#paint0_linear_313_221)"/>
<g opacity="0.660004">
<path d="M45.1178 19.0005L36.0128 13.7226C35.9216 13.67 35.8241 13.6325 35.724 13.608L25.4324 31.2135C25.519 31.3178 25.6235 31.4085 25.7431 31.4777L34.9026 36.7597C35.1757 36.9173 35.4916 36.9469 35.7823 36.8529L45.3976 19.246C45.3224 19.1498 45.2303 19.0654 45.1178 19.0005Z" fill="#4B4B4B"/>
</g>
<path d="M35.4001 13.5768C35.2323 13.5872 35.0665 13.636 34.9161 13.7228L25.8577 18.95L35.6982 36.877C35.8011 36.8526 35.9017 36.8147 35.997 36.7597L45.1209 31.4776C45.4623 31.2801 45.6295 30.9156 45.6295 30.5209V30.4795L35.7591 13.617C35.6601 13.5894 35.5581 13.5755 35.4562 13.5755C35.4375 13.5755 35.4188 13.5759 35.4001 13.5768Z" fill="url(#paint1_linear_313_221)"/>
<defs>
<linearGradient id="paint0_linear_313_221" x1="25.2178" y1="25.2412" x2="45.7165" y2="25.2412" gradientUnits="userSpaceOnUse">
<stop stop-color="white"/>
<stop offset="0.00530134" stop-color="white"/>
<stop offset="0.725388" stop-color="#AFB1B3"/>
<stop offset="1" stop-color="#AFB1B3"/>
</linearGradient>
<linearGradient id="paint1_linear_313_221" x1="25.0761" y1="25.2262" x2="46.222" y2="25.2262" gradientUnits="userSpaceOnUse">
<stop stop-color="#AFB1B3"/>
<stop offset="0.274612" stop-color="#AFB1B3"/>
<stop offset="0.994699" stop-color="white"/>
<stop offset="1" stop-color="white"/>
</linearGradient>
</defs>
</svg>
