<svg width="25" height="24" viewBox="0 0 25 24" fill="none" xmlns="http://www.w3.org/2000/svg">
<mask id="mask0_512_110" style="mask-type:alpha" maskUnits="userSpaceOnUse" x="0" y="0" width="25" height="24">
<rect x="0.613892" width="24" height="24" fill="#D9D9D9"/>
</mask>
<g mask="url(#mask0_512_110)">
<path d="M7.61389 13.5C8.03056 13.5 8.38456 13.354 8.67589 13.062C8.96789 12.7707 9.11389 12.4167 9.11389 12C9.11389 11.5833 8.96789 11.2293 8.67589 10.938C8.38456 10.646 8.03056 10.5 7.61389 10.5C7.19723 10.5 6.84323 10.646 6.55189 10.938C6.25989 11.2293 6.11389 11.5833 6.11389 12C6.11389 12.4167 6.25989 12.7707 6.55189 13.062C6.84323 13.354 7.19723 13.5 7.61389 13.5ZM12.6139 13.5C13.0306 13.5 13.3846 13.354 13.6759 13.062C13.9679 12.7707 14.1139 12.4167 14.1139 12C14.1139 11.5833 13.9679 11.2293 13.6759 10.938C13.3846 10.646 13.0306 10.5 12.6139 10.5C12.1972 10.5 11.8432 10.646 11.5519 10.938C11.2599 11.2293 11.1139 11.5833 11.1139 12C11.1139 12.4167 11.2599 12.7707 11.5519 13.062C11.8432 13.354 12.1972 13.5 12.6139 13.5ZM17.6139 13.5C18.0306 13.5 18.3846 13.354 18.6759 13.062C18.9679 12.7707 19.1139 12.4167 19.1139 12C19.1139 11.5833 18.9679 11.2293 18.6759 10.938C18.3846 10.646 18.0306 10.5 17.6139 10.5C17.1972 10.5 16.8432 10.646 16.5519 10.938C16.2599 11.2293 16.1139 11.5833 16.1139 12C16.1139 12.4167 16.2599 12.7707 16.5519 13.062C16.8432 13.354 17.1972 13.5 17.6139 13.5ZM12.6139 22C11.2306 22 9.93056 21.7373 8.71389 21.212C7.49723 20.6873 6.43889 19.975 5.53889 19.075C4.63889 18.175 3.92656 17.1167 3.40189 15.9C2.87656 14.6833 2.61389 13.3833 2.61389 12C2.61389 10.6167 2.87656 9.31667 3.40189 8.1C3.92656 6.88333 4.63889 5.825 5.53889 4.925C6.43889 4.025 7.49723 3.31233 8.71389 2.787C9.93056 2.26233 11.2306 2 12.6139 2C13.9972 2 15.2972 2.26233 16.5139 2.787C17.7306 3.31233 18.7889 4.025 19.6889 4.925C20.5889 5.825 21.3012 6.88333 21.8259 8.1C22.3512 9.31667 22.6139 10.6167 22.6139 12C22.6139 13.3833 22.3512 14.6833 21.8259 15.9C21.3012 17.1167 20.5889 18.175 19.6889 19.075C18.7889 19.975 17.7306 20.6873 16.5139 21.212C15.2972 21.7373 13.9972 22 12.6139 22ZM12.6139 20C14.8472 20 16.7389 19.225 18.2889 17.675C19.8389 16.125 20.6139 14.2333 20.6139 12C20.6139 9.76667 19.8389 7.875 18.2889 6.325C16.7389 4.775 14.8472 4 12.6139 4C10.3806 4 8.48889 4.775 6.93889 6.325C5.38889 7.875 4.61389 9.76667 4.61389 12C4.61389 14.2333 5.38889 16.125 6.93889 17.675C8.48889 19.225 10.3806 20 12.6139 20Z" fill="white"/>
</g>
</svg>
