<svg width="104" height="40" viewBox="0 0 104 40" fill="none" xmlns="http://www.w3.org/2000/svg">
<path d="M1.46042 0.265738L1.97914 0.0126537L14.9031 0V40H2.24289L1.71538 39.7975C1.056 39.5444 0.379027 38.9033 0.15044 38.3043C0.00977156 37.9163 0.000979821 36.8449 0.000980595 19.9557C0.000981512 -0.0210904 -0.0517697 1.60709 0.616408 0.881577C0.801036 0.679109 1.17909 0.400716 1.46042 0.265738Z" fill="white"/>
<rect width="61" height="40" transform="translate(14.9031)" fill="white"/>
<path d="M27.4255 28.5H21.7537V12.5H27.4724C29.0818 12.5 30.4672 12.8203 31.6287 13.4609C32.7901 14.0964 33.6834 15.0104 34.3084 16.2031C34.9386 17.3958 35.2537 18.8229 35.2537 20.4844C35.2537 22.151 34.9386 23.5833 34.3084 24.7812C33.6834 25.9792 32.7849 26.8984 31.613 27.5391C30.4464 28.1797 29.0505 28.5 27.4255 28.5ZM25.1365 25.6016H27.2849C28.2849 25.6016 29.1261 25.4245 29.8084 25.0703C30.4959 24.7109 31.0115 24.1562 31.3552 23.4062C31.7042 22.651 31.8787 21.6771 31.8787 20.4844C31.8787 19.3021 31.7042 18.3359 31.3552 17.5859C31.0115 16.8359 30.4985 16.2839 29.8162 15.9297C29.1339 15.5755 28.2927 15.3984 27.2927 15.3984H25.1365V25.6016ZM41.1189 28.7266C40.3533 28.7266 39.671 28.5938 39.072 28.3281C38.4731 28.0573 37.9991 27.6589 37.6501 27.1328C37.3064 26.6016 37.1345 25.9401 37.1345 25.1484C37.1345 24.4818 37.2569 23.9219 37.5017 23.4687C37.7465 23.0156 38.0798 22.651 38.5017 22.375C38.9236 22.099 39.4028 21.8906 39.9392 21.75C40.4809 21.6094 41.0486 21.5104 41.6423 21.4531C42.3403 21.3802 42.9028 21.3125 43.3298 21.25C43.7569 21.1823 44.0668 21.0833 44.2595 20.9531C44.4522 20.8229 44.5486 20.6302 44.5486 20.375V20.3281C44.5486 19.8333 44.3923 19.4505 44.0798 19.1797C43.7725 18.9089 43.335 18.7734 42.7673 18.7734C42.1684 18.7734 41.6918 18.9062 41.3376 19.1719C40.9835 19.4323 40.7491 19.7604 40.6345 20.1562L37.5564 19.9062C37.7126 19.1771 38.0199 18.5469 38.4783 18.0156C38.9366 17.4792 39.5278 17.0677 40.2517 16.7812C40.9809 16.4896 41.8246 16.3438 42.783 16.3438C43.4496 16.3438 44.0876 16.4219 44.697 16.5781C45.3116 16.7344 45.8559 16.9766 46.3298 17.3047C46.809 17.6328 47.1866 18.0547 47.4626 18.5703C47.7387 19.0807 47.8767 19.6927 47.8767 20.4062V28.5H44.7205V26.8359H44.6267C44.434 27.2109 44.1762 27.5417 43.8533 27.8281C43.5304 28.1094 43.1423 28.3307 42.6892 28.4922C42.2361 28.6484 41.7126 28.7266 41.1189 28.7266ZM42.072 26.4297C42.5616 26.4297 42.9939 26.3333 43.3689 26.1406C43.7439 25.9427 44.0382 25.6771 44.2517 25.3438C44.4653 25.0104 44.572 24.6328 44.572 24.2109V22.9375C44.4679 23.0052 44.3246 23.0677 44.1423 23.125C43.9653 23.1771 43.7647 23.2266 43.5408 23.2734C43.3168 23.3151 43.0929 23.3542 42.8689 23.3906C42.6449 23.4219 42.4418 23.4505 42.2595 23.4766C41.8689 23.5339 41.5278 23.625 41.2361 23.75C40.9444 23.875 40.7179 24.0443 40.5564 24.2578C40.3949 24.4661 40.3142 24.7266 40.3142 25.0391C40.3142 25.4922 40.4783 25.8385 40.8064 26.0781C41.1397 26.3125 41.5616 26.4297 42.072 26.4297ZM56.8416 16.5V19H49.615V16.5H56.8416ZM51.2556 13.625H54.5837V24.8125C54.5837 25.1198 54.6306 25.3594 54.7244 25.5312C54.8181 25.6979 54.9483 25.8151 55.115 25.8828C55.2869 25.9505 55.4848 25.9844 55.7087 25.9844C55.865 25.9844 56.0212 25.9714 56.1775 25.9453C56.3337 25.9141 56.4535 25.8906 56.5369 25.875L57.0603 28.3516C56.8936 28.4036 56.6593 28.4635 56.3572 28.5313C56.0551 28.6042 55.6879 28.6484 55.2556 28.6641C54.4535 28.6953 53.7504 28.5885 53.1462 28.3437C52.5473 28.099 52.0811 27.7187 51.7478 27.2031C51.4145 26.6875 51.2504 26.0365 51.2556 25.25V13.625ZM62.4314 28.7266C61.6658 28.7266 60.9835 28.5938 60.3845 28.3281C59.7856 28.0573 59.3116 27.6589 58.9626 27.1328C58.6189 26.6016 58.447 25.9401 58.447 25.1484C58.447 24.4818 58.5694 23.9219 58.8142 23.4687C59.059 23.0156 59.3923 22.651 59.8142 22.375C60.2361 22.099 60.7153 21.8906 61.2517 21.75C61.7934 21.6094 62.3611 21.5104 62.9548 21.4531C63.6528 21.3802 64.2153 21.3125 64.6423 21.25C65.0694 21.1823 65.3793 21.0833 65.572 20.9531C65.7647 20.8229 65.8611 20.6302 65.8611 20.375V20.3281C65.8611 19.8333 65.7048 19.4505 65.3923 19.1797C65.085 18.9089 64.6475 18.7734 64.0798 18.7734C63.4809 18.7734 63.0043 18.9062 62.6501 19.1719C62.296 19.4323 62.0616 19.7604 61.947 20.1562L58.8689 19.9062C59.0251 19.1771 59.3324 18.5469 59.7908 18.0156C60.2491 17.4792 60.8403 17.0677 61.5642 16.7812C62.2934 16.4896 63.1371 16.3438 64.0955 16.3438C64.7621 16.3438 65.4001 16.4219 66.0095 16.5781C66.6241 16.7344 67.1684 16.9766 67.6423 17.3047C68.1215 17.6328 68.4991 18.0547 68.7751 18.5703C69.0512 19.0807 69.1892 19.6927 69.1892 20.4062V28.5H66.033V26.8359H65.9392C65.7465 27.2109 65.4887 27.5417 65.1658 27.8281C64.8429 28.1094 64.4548 28.3307 64.0017 28.4922C63.5486 28.6484 63.0251 28.7266 62.4314 28.7266ZM63.3845 26.4297C63.8741 26.4297 64.3064 26.3333 64.6814 26.1406C65.0564 25.9427 65.3507 25.6771 65.5642 25.3438C65.7778 25.0104 65.8845 24.6328 65.8845 24.2109V22.9375C65.7804 23.0052 65.6371 23.0677 65.4548 23.125C65.2778 23.1771 65.0772 23.2266 64.8533 23.2734C64.6293 23.3151 64.4054 23.3542 64.1814 23.3906C63.9574 23.4219 63.7543 23.4505 63.572 23.4766C63.1814 23.5339 62.8403 23.625 62.5486 23.75C62.2569 23.875 62.0304 24.0443 61.8689 24.2578C61.7074 24.4661 61.6267 24.7266 61.6267 25.0391C61.6267 25.4922 61.7908 25.8385 62.1189 26.0781C62.4522 26.3125 62.8741 26.4297 63.3845 26.4297Z" fill="black"/>
<path fill-rule="evenodd" clip-rule="evenodd" d="M103.795 10.3678C103.592 9.75223 102.959 9.25471 101.166 8.28496C100.511 7.93521 99.5081 7.39377 98.6007 6.90379C98.2173 6.69675 97.8509 6.49891 97.5349 6.32859C96.9477 6.00743 96.2802 5.64517 95.7068 5.33398C95.2413 5.08137 94.8378 4.86241 94.5896 4.7264C94.0358 4.43125 93.0423 3.89157 92.3917 3.52896C88.8222 1.56417 86.2726 0.214949 85.9473 0.105325C85.7325 0.0366424 83.9623 0.00680769 75.9031 0V40H85.666L86.0792 39.8145C86.299 39.7217 87.7408 38.9544 89.2882 38.1195C89.819 37.8315 90.5006 37.4631 91.243 37.0619C92.6522 36.3003 94.2805 35.4203 95.5128 34.7465C102.555 30.9396 103.3 30.5547 103.595 29.9501C103.645 29.8489 103.681 29.7416 103.733 29.611C103.909 29.1641 103.909 28.987 103.9 19.9051C103.891 13.5638 103.865 10.5618 103.795 10.3678ZM91.5301 23.0741C92.5587 22.5871 93.2005 21.8434 93.5434 20.7367C94.1852 18.656 92.7522 16.4071 90.5542 16.0441C87.9694 15.628 85.7187 18.231 86.4924 20.7367C86.8353 21.8434 87.4771 22.5871 88.5057 23.0741C89.0508 23.3397 89.1651 23.3574 90.0179 23.3574C90.8707 23.3574 90.985 23.3397 91.5301 23.0741Z" fill="white"/>
</svg>
