<svg width="187" height="40" viewBox="0 0 187 40" fill="none" xmlns="http://www.w3.org/2000/svg">
<path d="M1.46042 0.265738L1.97914 0.0126537L14.9031 0V40H2.24289L1.71538 39.7975C1.056 39.5444 0.379027 38.9033 0.15044 38.3043C0.00977156 37.9163 0.000979821 36.8449 0.000980595 19.9557C0.000981512 -0.0210904 -0.0517697 1.60709 0.616408 0.881577C0.801036 0.679109 1.17909 0.400716 1.46042 0.265738Z" fill="white"/>
<rect width="144" height="40" transform="translate(14.9031)" fill="white"/>
<path d="M21.6492 28.5V12.5H32.2429V15.2891H25.032V19.1016H31.5398V21.8906H25.032V28.5H21.6492ZM34.2625 28.5V16.5H37.489V18.5937H37.614C37.8328 17.849 38.2 17.2865 38.7156 16.9063C39.2312 16.5208 39.825 16.3281 40.4968 16.3281C40.6635 16.3281 40.8432 16.3385 41.0359 16.3594C41.2286 16.3802 41.3979 16.4089 41.5437 16.4453V19.3984C41.3875 19.3516 41.1713 19.3099 40.8953 19.2734C40.6192 19.237 40.3666 19.2188 40.1375 19.2188C39.6479 19.2188 39.2104 19.3255 38.825 19.5391C38.4447 19.7474 38.1427 20.0391 37.9187 20.4141C37.7 20.7891 37.5906 21.2214 37.5906 21.7109V28.5H34.2625ZM46.3425 28.7266C45.5769 28.7266 44.8946 28.5938 44.2957 28.3281C43.6967 28.0573 43.2227 27.6589 42.8738 27.1328C42.53 26.6016 42.3582 25.9401 42.3582 25.1484C42.3582 24.4818 42.4806 23.9219 42.7253 23.4687C42.9701 23.0156 43.3035 22.651 43.7253 22.375C44.1472 22.099 44.6264 21.8906 45.1628 21.75C45.7045 21.6094 46.2722 21.5104 46.866 21.4531C47.5639 21.3802 48.1264 21.3125 48.5535 21.25C48.9806 21.1823 49.2904 21.0833 49.4832 20.9531C49.6759 20.8229 49.7722 20.6302 49.7722 20.375V20.3281C49.7722 19.8333 49.616 19.4505 49.3035 19.1797C48.9962 18.9089 48.5587 18.7734 47.991 18.7734C47.392 18.7734 46.9154 18.9062 46.5613 19.1719C46.2071 19.4323 45.9727 19.7604 45.8582 20.1562L42.78 19.9062C42.9363 19.1771 43.2436 18.5469 43.7019 18.0156C44.1602 17.4792 44.7514 17.0677 45.4753 16.7812C46.2045 16.4896 47.0483 16.3438 48.0066 16.3438C48.6733 16.3438 49.3113 16.4219 49.9207 16.5781C50.5352 16.7344 51.0795 16.9766 51.5535 17.3047C52.0326 17.6328 52.4102 18.0547 52.6863 18.5703C52.9623 19.0807 53.1003 19.6927 53.1003 20.4062V28.5H49.9441V26.8359H49.8503C49.6576 27.2109 49.3998 27.5417 49.0769 27.8281C48.754 28.1094 48.366 28.3307 47.9128 28.4922C47.4597 28.6484 46.9363 28.7266 46.3425 28.7266ZM47.2957 26.4297C47.7852 26.4297 48.2175 26.3333 48.5925 26.1406C48.9675 25.9427 49.2618 25.6771 49.4753 25.3438C49.6889 25.0104 49.7957 24.6328 49.7957 24.2109V22.9375C49.6915 23.0052 49.5483 23.0677 49.366 23.125C49.1889 23.1771 48.9884 23.2266 48.7644 23.2734C48.5404 23.3151 48.3165 23.3542 48.0925 23.3906C47.8686 23.4219 47.6654 23.4505 47.4832 23.4766C47.0925 23.5339 46.7514 23.625 46.4597 23.75C46.1681 23.875 45.9415 24.0443 45.78 24.2578C45.6186 24.4661 45.5378 24.7266 45.5378 25.0391C45.5378 25.4922 45.7019 25.8385 46.03 26.0781C46.3634 26.3125 46.7852 26.4297 47.2957 26.4297ZM55.6824 28.5V16.5H58.8542V18.6172H58.9949C59.2449 17.9141 59.6615 17.3594 60.2449 16.9531C60.8282 16.5469 61.5261 16.3438 62.3386 16.3438C63.1615 16.3438 63.8621 16.5495 64.4402 16.9609C65.0183 17.3672 65.4037 17.9193 65.5964 18.6172H65.7214C65.9662 17.9297 66.4089 17.3802 67.0496 16.9687C67.6954 16.5521 68.4584 16.3438 69.3386 16.3438C70.4584 16.3438 71.3673 16.7005 72.0652 17.4141C72.7683 18.1224 73.1199 19.1276 73.1199 20.4297V28.5H69.7996V21.0859C69.7996 20.4193 69.6225 19.9193 69.2683 19.5859C68.9141 19.2526 68.4714 19.0859 67.9402 19.0859C67.336 19.0859 66.8647 19.2786 66.5261 19.6641C66.1876 20.0443 66.0183 20.5469 66.0183 21.1719V28.5H62.7917V21.0156C62.7917 20.4271 62.6225 19.9583 62.2839 19.6094C61.9506 19.2604 61.5105 19.0859 60.9636 19.0859C60.5938 19.0859 60.2605 19.1797 59.9636 19.3672C59.672 19.5495 59.4402 19.8073 59.2683 20.1406C59.0964 20.4687 59.0105 20.8542 59.0105 21.2969V28.5H55.6824ZM81.2175 28.7344C79.9832 28.7344 78.9207 28.4844 78.03 27.9844C77.1446 27.4792 76.4623 26.7656 75.9832 25.8437C75.504 24.9167 75.2644 23.8203 75.2644 22.5547C75.2644 21.3203 75.504 20.237 75.9832 19.3047C76.4623 18.3724 77.1368 17.6458 78.0066 17.125C78.8816 16.6042 79.9076 16.3438 81.0847 16.3438C81.8764 16.3438 82.6134 16.4714 83.2957 16.7266C83.9832 16.9766 84.5821 17.3542 85.0925 17.8594C85.6082 18.3646 86.0092 19 86.2957 19.7656C86.5821 20.526 86.7253 21.4167 86.7253 22.4375V23.3516H76.5925V21.2891H83.5925C83.5925 20.8099 83.4884 20.3854 83.28 20.0156C83.0717 19.6458 82.7826 19.3568 82.4128 19.1484C82.0483 18.9349 81.6238 18.8281 81.1394 18.8281C80.6342 18.8281 80.1863 18.9453 79.7957 19.1797C79.4102 19.4089 79.1082 19.7187 78.8894 20.1094C78.6707 20.4948 78.5587 20.9245 78.5535 21.3984V23.3594C78.5535 23.9531 78.6628 24.4661 78.8816 24.8984C79.1056 25.3307 79.4207 25.6641 79.8269 25.8984C80.2332 26.1328 80.7149 26.25 81.2722 26.25C81.642 26.25 81.9806 26.1979 82.2878 26.0938C82.5951 25.9896 82.8582 25.8333 83.0769 25.625C83.2957 25.4167 83.4623 25.1615 83.5769 24.8594L86.655 25.0625C86.4988 25.8021 86.1785 26.4479 85.6941 27C85.2149 27.5469 84.5951 27.974 83.8347 28.2813C83.0795 28.5833 82.2071 28.7344 81.2175 28.7344ZM91.1785 28.5L87.9128 16.5H91.28L93.1394 24.5625H93.2488L95.1863 16.5H98.491L100.46 24.5156H100.561L102.389 16.5H105.749L102.491 28.5H98.9675L96.905 20.9531H96.7566L94.6941 28.5H91.1785ZM112.645 28.7344C111.432 28.7344 110.382 28.4766 109.497 27.9609C108.617 27.4401 107.937 26.7161 107.458 25.7891C106.979 24.8568 106.739 23.776 106.739 22.5469C106.739 21.3073 106.979 20.224 107.458 19.2969C107.937 18.3646 108.617 17.6406 109.497 17.125C110.382 16.6042 111.432 16.3438 112.645 16.3438C113.859 16.3438 114.906 16.6042 115.786 17.125C116.671 17.6406 117.354 18.3646 117.833 19.2969C118.312 20.224 118.552 21.3073 118.552 22.5469C118.552 23.776 118.312 24.8568 117.833 25.7891C117.354 26.7161 116.671 27.4401 115.786 27.9609C114.906 28.4766 113.859 28.7344 112.645 28.7344ZM112.661 26.1562C113.213 26.1562 113.674 26 114.044 25.6875C114.413 25.3698 114.692 24.9375 114.88 24.3906C115.072 23.8437 115.169 23.2214 115.169 22.5234C115.169 21.8255 115.072 21.2031 114.88 20.6562C114.692 20.1094 114.413 19.6771 114.044 19.3594C113.674 19.0417 113.213 18.8828 112.661 18.8828C112.104 18.8828 111.635 19.0417 111.255 19.3594C110.88 19.6771 110.596 20.1094 110.403 20.6562C110.216 21.2031 110.122 21.8255 110.122 22.5234C110.122 23.2214 110.216 23.8437 110.403 24.3906C110.596 24.9375 110.88 25.3698 111.255 25.6875C111.635 26 112.104 26.1562 112.661 26.1562ZM120.716 28.5V16.5H123.942V18.5937H124.067C124.286 17.849 124.653 17.2865 125.169 16.9063C125.684 16.5208 126.278 16.3281 126.95 16.3281C127.117 16.3281 127.296 16.3385 127.489 16.3594C127.682 16.3802 127.851 16.4089 127.997 16.4453V19.3984C127.841 19.3516 127.624 19.3099 127.348 19.2734C127.072 19.237 126.82 19.2188 126.591 19.2188C126.101 19.2188 125.663 19.3255 125.278 19.5391C124.898 19.7474 124.596 20.0391 124.372 20.4141C124.153 20.7891 124.044 21.2214 124.044 21.7109V28.5H120.716ZM132.733 25.0469L132.741 21.0547H133.225L137.069 16.5H140.889L135.725 22.5313H134.936L132.733 25.0469ZM129.718 28.5V12.5H133.046V28.5H129.718ZM137.218 28.5L133.686 23.2734L135.905 20.9219L141.116 28.5H137.218ZM152.507 19.9219L149.46 20.1094C149.408 19.849 149.296 19.6146 149.124 19.4062C148.952 19.1927 148.725 19.0234 148.444 18.8984C148.168 18.7682 147.837 18.7031 147.452 18.7031C146.936 18.7031 146.501 18.8125 146.147 19.0312C145.793 19.2448 145.616 19.5312 145.616 19.8906C145.616 20.1771 145.731 20.4193 145.96 20.6172C146.189 20.8151 146.582 20.974 147.139 21.0937L149.311 21.5312C150.478 21.7708 151.348 22.1562 151.921 22.6875C152.494 23.2187 152.78 23.9167 152.78 24.7812C152.78 25.5677 152.548 26.2578 152.085 26.8516C151.626 27.4453 150.996 27.9089 150.194 28.2422C149.397 28.5703 148.478 28.7344 147.436 28.7344C145.848 28.7344 144.582 28.4036 143.639 27.7422C142.702 27.0755 142.152 26.1693 141.991 25.0234L145.264 24.8516C145.363 25.3359 145.603 25.7057 145.983 25.9609C146.363 26.2109 146.85 26.3359 147.444 26.3359C148.027 26.3359 148.496 26.224 148.85 26C149.21 25.7708 149.392 25.4766 149.397 25.1172C149.392 24.8151 149.264 24.5677 149.014 24.375C148.764 24.1771 148.379 24.026 147.858 23.9219L145.78 23.5078C144.608 23.2734 143.736 22.8672 143.163 22.2891C142.595 21.7109 142.311 20.974 142.311 20.0781C142.311 19.3073 142.52 18.6432 142.936 18.0859C143.358 17.5286 143.949 17.099 144.71 16.7969C145.475 16.4948 146.371 16.3438 147.397 16.3438C148.913 16.3438 150.106 16.6641 150.975 17.3047C151.85 17.9453 152.361 18.8177 152.507 19.9219Z" fill="black"/>
<path fill-rule="evenodd" clip-rule="evenodd" d="M186.795 10.3678C186.592 9.75223 185.959 9.25471 184.166 8.28496C183.511 7.93521 182.508 7.39377 181.601 6.90379C181.217 6.69675 180.851 6.49891 180.535 6.32859C179.948 6.00743 179.28 5.64517 178.707 5.33398C178.241 5.08137 177.838 4.86241 177.59 4.7264C177.036 4.43125 176.042 3.89157 175.392 3.52896C171.822 1.56417 169.273 0.214949 168.947 0.105325C168.732 0.0366424 166.962 0.00680769 158.903 0V40H168.666L169.079 39.8145C169.299 39.7217 170.741 38.9544 172.288 38.1195C172.819 37.8315 173.501 37.4631 174.243 37.0619C175.652 36.3003 177.281 35.4203 178.513 34.7465C185.555 30.9396 186.3 30.5547 186.595 29.9501C186.645 29.8489 186.681 29.7416 186.733 29.611C186.909 29.1641 186.909 28.987 186.9 19.9051C186.891 13.5638 186.865 10.5618 186.795 10.3678ZM174.53 23.0741C175.559 22.5871 176.201 21.8434 176.543 20.7367C177.185 18.656 175.752 16.4071 173.554 16.0441C170.969 15.628 168.719 18.231 169.492 20.7367C169.835 21.8434 170.477 22.5871 171.506 23.0741C172.051 23.3397 172.165 23.3574 173.018 23.3574C173.871 23.3574 173.985 23.3397 174.53 23.0741Z" fill="white"/>
</svg>
