<svg width="85" height="85" viewBox="0 0 85 85" fill="none" xmlns="http://www.w3.org/2000/svg">
<path fill-rule="evenodd" clip-rule="evenodd" d="M0 0H85V85H0V0ZM52.627 67.8978V67.5684L52.3115 67.6414C52.4158 67.7283 52.521 67.8138 52.627 67.8978ZM52.627 67.8978V75.8691C53.9717 76.5664 55.6152 77.0811 57.4414 77.4297C59.2676 77.7783 61.2598 77.9443 63.252 77.9443C65.2441 77.9443 67.0703 77.7617 68.8965 77.3799C70.7227 76.9981 72.2168 76.3672 73.5449 75.5537C74.8896 74.6738 76.0352 73.5615 76.6992 72.0674C77.3633 70.5733 77.8779 68.9131 77.8779 66.7549C77.8779 65.2441 77.6455 63.9326 77.1973 62.7705C76.749 61.6084 76.1016 60.6123 75.2051 59.7822C74.3584 58.9024 73.3789 58.1221 72.2168 57.458C71.0547 56.794 69.7266 56.0967 68.2324 55.4658C67.5533 55.188 66.9507 54.9166 66.3535 54.6476C65.9872 54.4825 65.6229 54.3184 65.2441 54.1543C64.3809 53.7227 63.6338 53.291 63.0859 52.8594C62.4717 52.4111 62.0068 51.9463 61.6748 51.4648C61.3428 50.9668 61.1768 50.4189 61.1768 49.8047C61.1768 49.2402 61.3245 48.7256 61.625 48.2607C61.9255 47.7959 62.3389 47.4141 62.8701 47.082C63.4014 46.75 64.0654 46.501 64.8623 46.3184C65.6426 46.1357 66.5059 46.0527 67.5185 46.0527C68.2158 46.0527 68.9463 46.1042 69.6768 46.2088C70.4404 46.3134 71.2207 46.4744 72.001 46.6902C72.7813 46.9061 73.5449 47.1717 74.3252 47.5037C75.0557 47.8358 75.7363 48.2176 76.3174 48.6492V40.8465C75.0557 40.365 73.6611 39.9998 72.167 39.7674C70.6728 39.535 69.0127 39.4187 67.0205 39.4187C65.0283 39.4187 63.2021 39.6346 61.376 40.0496C59.5498 40.4646 58.0557 41.1287 56.7275 42.0418C55.3828 42.9383 54.4033 44.034 53.5732 45.5281C52.793 46.9226 52.4111 48.5164 52.4111 50.5086C52.4111 52.9988 53.125 55.157 54.5693 56.8172C55.9971 58.6434 58.2217 59.9715 61.0439 61.2996C62.038 61.703 62.9321 62.1064 63.8021 62.499C63.9346 62.5588 64.0666 62.6183 64.1982 62.6775C65.1943 63.1258 66.0244 63.5906 66.6885 64.0721C67.4023 64.5535 67.9668 65.0848 68.3486 65.6492C68.7637 66.2137 68.9795 66.8777 68.9795 67.6414C68.9795 68.1726 68.85 68.6707 68.5976 69.1355C68.3453 69.6004 67.9502 69.9988 67.4189 70.3309C66.8877 70.6629 66.2402 70.9285 65.4268 71.1277C64.6465 71.3104 63.7666 71.41 62.6045 71.41C60.7783 71.41 58.9521 71.0945 57.292 70.4637C55.5933 69.8769 54.0383 69.0171 52.627 67.8978ZM49.3066 47.1484H38.6816V77.5293H30.2148V47.1484H19.5898V40.3418H49.3066V47.1484Z" fill="white"/>
</svg>
